# xmcd CD database file generated by OrangeCD 6.4
#
# Track frame offsets:
#	150
#	13861
#	26637
#	43048
#	56713
#	70091
#	78448
#	93534
#	107485
#	119731
#	134068
#	146521
#	157166
#	173077
#	187140
#	202637
#	212940
#	227954
#	246145
#	258359
#	274418
#
# Disc length: 3784 seconds
#
# Revision: 3
# Processed by: cddbd v1.5.2PL0 Copyright (c) Steve Scherf et al.
# Submitted via: OrangeCD 6.4
#
DISCID=410ec615
DTITLE=Various Artist - Sugar Hill Records: A Retrospective 1978-1986
DYEAR=2006
DGENRE=Bluegrass
TTITLE0=Could You Love Me One More Time (Ricky Skaggs)
TTITLE1=Mis'ry River (Doyle Lawson and Quicksilver)
TTITLE2=Long Time Gone (John Starling)
TTITLE3=Moonshiner (Peter Rowan)
TTITLE4=Hey Porter (Marty Stewart)
TTITLE5=Little Rock Getaway (Mike Auldridge)
TTITLE6=One More Love Song (New Grass Revival)
TTITLE7=Church Street Blues (Tony Rice)
TTITLE8=One Way Track (Boone Creek)
TTITLE9=Why You Been Gone So Long (Chris Hillman)
TTITLE10=Keep Your Lamp Trimmed And Burning (Hot Rize)
TTITLE11=You Touched Me And Made Me Live Again (Jimmy Murphy)
TTITLE12=Come And Sit By The River (The Country Gentlemen)
TTITLE13=Ranger's Command (The Hillmen)
TTITLE14=Greenville Trestle High (Doc Watson)
TTITLE15=More Pretty Girls Than One (Buck White)
TTITLE16=High On A Hilltop (The Osborne Brothers)
TTITLE17=Forked Deer (Berline, Crary and Hickman)
TTITLE18=Bury Me Beneath The Willows (Ricky Skaggs)
TTITLE19=Don't This Road Look Rough And Rocky (Jonathan Edwards and The Seldom Sc
TTITLE19=ene)
TTITLE20=On The Sea Of Life (Doyle Lawson and Quicksilver)
EXTD=
EXTT0=
EXTT1=
EXTT2=
EXTT3=
EXTT4=
EXTT5=
EXTT6=
EXTT7=
EXTT8=
EXTT9=
EXTT10=
EXTT11=
EXTT12=
EXTT13=
EXTT14=
EXTT15=
EXTT16=
EXTT17=
EXTT18=
EXTT19=
EXTT20=
PLAYORDER=
